<svg width="15" height="16" viewBox="0 0 15 16" fill="none" xmlns="http://www.w3.org/2000/svg">
<path fill-rule="evenodd" clip-rule="evenodd" d="M9.45455 1.45455V0.727273C9.45455 0.325611 9.78016 0 10.1818 0C10.5835 0 10.9091 0.325611 10.9091 0.727273V1.45455H12.3636C13.5686 1.45455 14.5455 2.43138 14.5455 3.63636V6.54545V13.8182C14.5455 15.0232 13.5686 16 12.3636 16H2.18182C0.976833 16 0 15.0232 0 13.8182V6.54545V3.63636C0 2.43138 0.976833 1.45455 2.18182 1.45455H3.63636V0.727273C3.63636 0.325611 3.96197 0 4.36364 0C4.7653 0 5.09091 0.325611 5.09091 0.727273V1.45455H9.45455ZM1.45455 7.27273V13.8182C1.45455 14.2198 1.78016 14.5455 2.18182 14.5455H12.3636C12.7653 14.5455 13.0909 14.2198 13.0909 13.8182V7.27273H1.45455ZM13.0909 5.81818H1.45455V3.63636C1.45455 3.2347 1.78016 2.90909 2.18182 2.90909H3.63636V3.63636C3.63636 4.03803 3.96197 4.36364 4.36364 4.36364C4.7653 4.36364 5.09091 4.03803 5.09091 3.63636V2.90909H9.45455V3.63636C9.45455 4.03803 9.78016 4.36364 10.1818 4.36364C10.5835 4.36364 10.9091 4.03803 10.9091 3.63636V2.90909H12.3636C12.7653 2.90909 13.0909 3.2347 13.0909 3.63636V5.81818Z" fill="#AEAEAE"/>
<mask id="mask0_0_342" style="mask-type:luminance" maskUnits="userSpaceOnUse" x="0" y="0" width="15" height="16">
<path fill-rule="evenodd" clip-rule="evenodd" d="M9.45455 1.45455V0.727273C9.45455 0.325611 9.78016 0 10.1818 0C10.5835 0 10.9091 0.325611 10.9091 0.727273V1.45455H12.3636C13.5686 1.45455 14.5455 2.43138 14.5455 3.63636V6.54545V13.8182C14.5455 15.0232 13.5686 16 12.3636 16H2.18182C0.976833 16 0 15.0232 0 13.8182V6.54545V3.63636C0 2.43138 0.976833 1.45455 2.18182 1.45455H3.63636V0.727273C3.63636 0.325611 3.96197 0 4.36364 0C4.7653 0 5.09091 0.325611 5.09091 0.727273V1.45455H9.45455ZM1.45455 7.27273V13.8182C1.45455 14.2198 1.78016 14.5455 2.18182 14.5455H12.3636C12.7653 14.5455 13.0909 14.2198 13.0909 13.8182V7.27273H1.45455ZM13.0909 5.81818H1.45455V3.63636C1.45455 3.2347 1.78016 2.90909 2.18182 2.90909H3.63636V3.63636C3.63636 4.03803 3.96197 4.36364 4.36364 4.36364C4.7653 4.36364 5.09091 4.03803 5.09091 3.63636V2.90909H9.45455V3.63636C9.45455 4.03803 9.78016 4.36364 10.1818 4.36364C10.5835 4.36364 10.9091 4.03803 10.9091 3.63636V2.90909H12.3636C12.7653 2.90909 13.0909 3.2347 13.0909 3.63636V5.81818Z" fill="white"/>
</mask>
<g mask="url(#mask0_0_342)">
</g>
</svg>
