<svg width="16" height="12" viewBox="0 0 16 12" fill="none" xmlns="http://www.w3.org/2000/svg">
<path d="M0.127739 5.42558L5.31659 0.129283C5.48461 -0.0430943 5.75913 -0.0430943 5.92804 0.129283C6.09608 0.300799 6.09608 0.581037 5.92804 0.753451L1.4773 5.29585H15.5676C15.8062 5.29585 16 5.49372 16 5.73719C16 5.98074 15.8062 6.17861 15.5676 6.17861H1.47732L5.92804 10.7214C6.09608 10.8934 6.09608 11.1736 5.92804 11.3455C5.84272 11.4321 5.73211 11.4744 5.62147 11.4744C5.51082 11.4744 5.40017 11.4313 5.31489 11.3455L0.126053 6.04888C-0.0420172 5.87689 -0.0420172 5.59673 0.126053 5.4247L0.127739 5.42558Z" fill="#131415"/>
</svg>
