<svg width="96" height="384" viewBox="0 0 96 384" fill="none" xmlns="http://www.w3.org/2000/svg">
<mask id="path-1-inside-1_0_970" fill="white">
<path fill-rule="evenodd" clip-rule="evenodd" d="M8 0C3.58172 0 0 3.58171 0 7.99999V376C0 380.418 3.58172 384 8 384H88C92.4183 384 96 380.418 96 376V336H56C51.5817 336 48 332.418 48 328V56C48 51.5817 51.5817 48 56 48H96V8C96 3.58172 92.4183 0 88 0H8Z"/>
</mask>
<path d="M96 336H97V335H96V336ZM96 48V49H97V48H96ZM1 7.99999C1 4.134 4.13401 1 8 1V-1C3.02944 -1 -1 3.02943 -1 7.99999H1ZM1 376V7.99999H-1V376H1ZM8 383C4.13401 383 1 379.866 1 376H-1C-1 380.971 3.02943 385 8 385V383ZM88 383H8V385H88V383ZM95 376C95 379.866 91.866 383 88 383V385C92.9706 385 97 380.971 97 376H95ZM95 336V376H97V336H95ZM96 335H56V337H96V335ZM56 335C52.134 335 49 331.866 49 328H47C47 332.971 51.0294 337 56 337V335ZM49 328V56H47V328H49ZM49 56C49 52.134 52.134 49 56 49V47C51.0294 47 47 51.0294 47 56H49ZM56 49H96V47H56V49ZM95 8V48H97V8H95ZM88 1C91.866 1 95 4.13401 95 8H97C97 3.02944 92.9706 -1 88 -1V1ZM8 1H88V-1H8V1Z" fill="#4D2615" mask="url(#path-1-inside-1_0_970)"/>
</svg>
