<svg width="12" height="17" viewBox="0 0 12 17" fill="none" xmlns="http://www.w3.org/2000/svg">
<path d="M6.3116 16.6096L11.6079 11.4207C11.7803 11.2527 11.7803 10.9782 11.6079 10.8093C11.4364 10.6412 11.1561 10.6412 10.9837 10.8093L6.44133 15.26L6.44133 1.16972C6.44133 0.931126 6.24346 0.737305 5.99999 0.737305C5.75644 0.737305 5.55857 0.931126 5.55857 1.16972L5.55857 15.26L1.0158 10.8093C0.843794 10.6412 0.563592 10.6412 0.391655 10.8093C0.305036 10.8946 0.262789 11.0052 0.262789 11.1158C0.262789 11.2265 0.305879 11.3371 0.391655 11.4224L5.6883 16.6113C5.86029 16.7793 6.14046 16.7793 6.31248 16.6113L6.3116 16.6096Z" fill="#141414"/>
</svg>
