<svg width="14" height="14" viewBox="0 0 14 14" fill="none" xmlns="http://www.w3.org/2000/svg">
<path d="M13.4139 6.41376H7.58606V0.58615C7.58606 0.262538 7.32352 0 6.99991 0C6.67648 0 6.41376 0.262538 6.41376 0.58615V6.41376H0.58615C0.262538 6.41376 0 6.6763 0 6.99991C0 7.32333 0.262538 7.58606 0.58615 7.58606H6.41376V13.4139C6.41376 13.738 6.6763 14 6.99991 14C7.32352 14 7.58606 13.738 7.58606 13.4139V7.58606H13.4139C13.738 7.58606 14 7.32352 14 6.99991C14 6.67648 13.7378 6.41376 13.4139 6.41376Z" fill="#9A8B88"/>
</svg>
