<svg width="14" height="14" viewBox="0 0 14 14" fill="none" xmlns="http://www.w3.org/2000/svg">
<path d="M2.34761 2.56044L4.05702 1.09146C4.22373 0.949684 4.3192 0.753817 4.32178 0.548309C4.32436 0.3428 4.23382 0.145075 4.07071 0L4.4296 0.320315C4.08727 0.0174315 3.53618 0.0151185 3.19066 0.315115L0.268246 2.87062C-0.192315 3.27361 -0.0452036 3.60016 0.597426 3.60016H7.59119C10.1605 3.60016 12.8348 5.79973 12.8348 8.28009C12.8348 10.7605 10.1605 12.96 7.59119 12.96H5.55115C5.39663 12.9598 5.2484 13.0146 5.13922 13.1121C5.03005 13.2097 4.96894 13.3421 4.9694 13.48C4.9694 13.7669 5.22972 13.9996 5.55115 14H7.59119C10.8052 14 14 11.6639 14 8.28009C14 4.89624 10.8052 2.56018 7.59119 2.56018H2.34761V2.56044Z" fill="#423A38"/>
</svg>
