<svg width="14" height="14" viewBox="0 0 14 14" fill="none" xmlns="http://www.w3.org/2000/svg">
<path fill-rule="evenodd" clip-rule="evenodd" d="M7.95515 12.0971C8.12426 12.0971 8.28642 12.0298 8.40582 11.9101L12.6949 7.60824C14.4351 5.86764 14.435 3.04588 12.6946 1.30543C10.954 -0.435142 8.13198 -0.435142 6.39142 1.30543L2.09564 5.60121C1.97629 5.72056 1.90924 5.88243 1.90924 6.05122V11.1971L0.186401 12.9199C-0.0621336 13.1685 -0.0621336 13.5714 0.186401 13.82C0.434935 14.0685 0.837889 14.0685 1.08642 13.82L2.80926 12.0971H7.95515ZM3.18206 6.31483V9.92428L4.64051 8.46583C4.64103 8.46532 4.64154 8.4648 4.64206 8.46429L9.09617 4.01018C9.3447 3.76164 9.74765 3.76164 9.99619 4.01018C10.2447 4.25871 10.2447 4.66166 9.99619 4.9102L6.62773 8.27866H10.1826C10.1977 8.27866 10.2127 8.27918 10.2275 8.28022L11.7939 6.70923C13.0381 5.46506 13.0381 3.44895 11.7946 2.20545C10.5511 0.961948 8.53494 0.961948 7.29144 2.20545L3.18206 6.31483ZM8.96004 9.55148L7.69098 10.8243H4.08208L5.3549 9.55148H8.96004Z" fill="#423A38"/>
</svg>
