<svg width="24" height="23" viewBox="0 0 24 23" fill="none" xmlns="http://www.w3.org/2000/svg">
<path d="M17.1941 1.96509L11.8089 7.34753C11.4839 7.67245 11.45 8.16125 11.7326 8.44379C12.3316 9.04278 12.2609 10.0854 11.5715 10.7719L2.86921 19.4742C2.28152 20.0619 2.21936 20.9548 2.73076 21.4662L2.9568 21.6922C3.4682 22.2036 4.36103 22.1443 4.94872 21.5538L23.783 2.71948C24.0458 2.45672 24.074 2.05551 23.8452 1.82665L23.5457 1.52715C21.9126 -0.105942 19.0702 0.0890125 17.1941 1.96509Z" fill="#423A38"/>
<path d="M20.8869 17.6095L11.4981 8.22057C11.953 7.22885 11.7721 6.01674 10.9584 5.20302L5.96306 0.207669C5.68617 -0.0692229 5.23975 -0.0692229 4.96286 0.207669C4.68597 0.48456 4.68597 0.930977 4.96286 1.20787L9.95821 6.20039C10.4527 6.69484 10.4527 7.50291 9.95821 7.99736L9.47506 8.48333C9.45811 8.46073 9.43833 8.44095 9.41855 8.41835L3.58688 2.58385C3.30998 2.30696 2.86357 2.30696 2.58668 2.58385C2.30978 2.86074 2.30978 3.30716 2.58668 3.58405L8.42118 9.41855C8.44095 9.43833 8.46356 9.45811 8.48616 9.47506L8.00019 9.95821C7.50574 10.4527 6.69767 10.4527 6.20322 9.95821L1.20787 4.96286C0.930977 4.68597 0.48456 4.68597 0.207669 4.96286C-0.0692229 5.23975 -0.0692229 5.68617 0.207669 5.96306L5.20302 10.9584C5.72572 11.4811 6.4123 11.7439 7.1017 11.7439C7.48596 11.7439 7.86739 11.6619 8.2234 11.5009L17.0415 20.319C17.18 20.4575 17.3608 20.5253 17.5416 20.5253C17.7225 20.5253 17.9033 20.4575 18.0417 20.319C18.3186 20.0421 18.3186 19.5957 18.0417 19.3188L9.33944 10.6165L10.6194 9.33661L19.8896 18.6068C20.384 19.1013 20.384 19.9093 19.8896 20.4038L19.2539 21.0395C18.977 21.3164 18.977 21.7628 19.2539 22.0397C19.3923 22.1782 19.5731 22.246 19.754 22.246C19.9348 22.246 20.1156 22.1782 20.2541 22.0397L20.8898 21.404C21.9352 20.3586 21.9352 18.6549 20.8869 17.6095V17.6095Z" fill="#423A38"/>
</svg>
